<mxfile host="65bd71144e">
    <diagram id="u_1OhojnDqp91_Aj7S2e" name="ページ1">
        <mxGraphModel dx="1214" dy="1074" grid="1" gridSize="10" guides="1" tooltips="1" connect="1" arrows="1" fold="1" page="1" pageScale="1" pageWidth="850" pageHeight="1400" math="0" shadow="0">
            <root>
                <mxCell id="0"/>
                <mxCell id="1" parent="0"/>
                <mxCell id="57" value="" style="rounded=0;whiteSpace=wrap;html=1;" vertex="1" parent="1">
                    <mxGeometry x="40" y="90" width="480" height="540" as="geometry"/>
                </mxCell>
                <mxCell id="2" value="教卓" style="rounded=0;whiteSpace=wrap;html=1;direction=south;" parent="1" vertex="1">
                    <mxGeometry x="80" y="170" width="40" height="120" as="geometry"/>
                </mxCell>
                <mxCell id="3" value="教卓" style="rounded=0;whiteSpace=wrap;html=1;direction=south;" parent="1" vertex="1">
                    <mxGeometry x="80" y="330" width="40" height="120" as="geometry"/>
                </mxCell>
                <mxCell id="4" value="教卓" style="rounded=0;whiteSpace=wrap;html=1;direction=south;" parent="1" vertex="1">
                    <mxGeometry x="80" y="490" width="40" height="120" as="geometry"/>
                </mxCell>
                <mxCell id="5" value="テーブル" style="rounded=0;whiteSpace=wrap;html=1;horizontal=1;direction=south;" parent="1" vertex="1">
                    <mxGeometry x="120" y="530" width="320" height="40" as="geometry"/>
                </mxCell>
                <mxCell id="6" value="41&lt;span style=&quot;color: rgba(0, 0, 0, 0); font-family: monospace; font-size: 0px; text-align: start;&quot;&gt;%3CmxGraphModel%3E%3Croot%3E%3CmxCell%20id%3D%220%22%2F%3E%3CmxCell%20id%3D%221%22%20parent%3D%220%22%2F%3E%3CmxCell%20id%3D%222%22%20value%3D%22%E6%95%99%E5%8D%93%22%20style%3D%22rounded%3D0%3BwhiteSpace%3Dwrap%3Bhtml%3D1%3B%22%20vertex%3D%221%22%20parent%3D%221%22%3E%3CmxGeometry%20x%3D%22120%22%20y%3D%2280%22%20width%3D%22120%22%20height%3D%2240%22%20as%3D%22geometry%22%2F%3E%3C%2FmxCell%3E%3C%2Froot%3E%3C%2FmxGraphModel%3E&lt;/span&gt;" style="rounded=0;whiteSpace=wrap;html=1;direction=south;" parent="1" vertex="1">
                    <mxGeometry x="440" y="550" width="40" height="60" as="geometry"/>
                </mxCell>
                <mxCell id="7" value="42" style="rounded=0;whiteSpace=wrap;html=1;direction=south;" parent="1" vertex="1">
                    <mxGeometry x="440" y="490" width="40" height="60" as="geometry"/>
                </mxCell>
                <mxCell id="8" value="1" style="rounded=0;whiteSpace=wrap;html=1;direction=south;" parent="1" vertex="1">
                    <mxGeometry x="120" y="570" width="40" height="40" as="geometry"/>
                </mxCell>
                <mxCell id="9" value="2" style="rounded=0;whiteSpace=wrap;html=1;direction=south;" parent="1" vertex="1">
                    <mxGeometry x="160" y="570" width="40" height="40" as="geometry"/>
                </mxCell>
                <mxCell id="10" value="3" style="rounded=0;whiteSpace=wrap;html=1;direction=south;" parent="1" vertex="1">
                    <mxGeometry x="200" y="570" width="40" height="40" as="geometry"/>
                </mxCell>
                <mxCell id="11" value="4" style="rounded=0;whiteSpace=wrap;html=1;direction=south;" parent="1" vertex="1">
                    <mxGeometry x="240" y="570" width="40" height="40" as="geometry"/>
                </mxCell>
                <mxCell id="12" value="5" style="rounded=0;whiteSpace=wrap;html=1;direction=south;" parent="1" vertex="1">
                    <mxGeometry x="280" y="570" width="40" height="40" as="geometry"/>
                </mxCell>
                <mxCell id="13" value="6" style="rounded=0;whiteSpace=wrap;html=1;direction=south;" parent="1" vertex="1">
                    <mxGeometry x="320" y="570" width="40" height="40" as="geometry"/>
                </mxCell>
                <mxCell id="14" value="7" style="rounded=0;whiteSpace=wrap;html=1;direction=south;" parent="1" vertex="1">
                    <mxGeometry x="360" y="570" width="40" height="40" as="geometry"/>
                </mxCell>
                <mxCell id="15" value="8" style="rounded=0;whiteSpace=wrap;html=1;direction=south;" parent="1" vertex="1">
                    <mxGeometry x="400" y="570" width="40" height="40" as="geometry"/>
                </mxCell>
                <mxCell id="17" value="9" style="rounded=0;whiteSpace=wrap;html=1;direction=south;" parent="1" vertex="1">
                    <mxGeometry x="120" y="490" width="40" height="40" as="geometry"/>
                </mxCell>
                <mxCell id="18" value="10" style="rounded=0;whiteSpace=wrap;html=1;direction=south;" parent="1" vertex="1">
                    <mxGeometry x="160" y="490" width="40" height="40" as="geometry"/>
                </mxCell>
                <mxCell id="19" value="11" style="rounded=0;whiteSpace=wrap;html=1;direction=south;" parent="1" vertex="1">
                    <mxGeometry x="200" y="490" width="40" height="40" as="geometry"/>
                </mxCell>
                <mxCell id="20" value="12" style="rounded=0;whiteSpace=wrap;html=1;direction=south;" parent="1" vertex="1">
                    <mxGeometry x="240" y="490" width="40" height="40" as="geometry"/>
                </mxCell>
                <mxCell id="21" value="13" style="rounded=0;whiteSpace=wrap;html=1;direction=south;" parent="1" vertex="1">
                    <mxGeometry x="280" y="490" width="40" height="40" as="geometry"/>
                </mxCell>
                <mxCell id="22" value="14" style="rounded=0;whiteSpace=wrap;html=1;direction=south;" parent="1" vertex="1">
                    <mxGeometry x="320" y="490" width="40" height="40" as="geometry"/>
                </mxCell>
                <mxCell id="23" value="15" style="rounded=0;whiteSpace=wrap;html=1;direction=south;" parent="1" vertex="1">
                    <mxGeometry x="360" y="490" width="40" height="40" as="geometry"/>
                </mxCell>
                <mxCell id="24" value="16" style="rounded=0;whiteSpace=wrap;html=1;direction=south;" parent="1" vertex="1">
                    <mxGeometry x="400" y="490" width="40" height="40" as="geometry"/>
                </mxCell>
                <mxCell id="25" value="17" style="rounded=0;whiteSpace=wrap;html=1;direction=south;" parent="1" vertex="1">
                    <mxGeometry x="120" y="410" width="40" height="40" as="geometry"/>
                </mxCell>
                <mxCell id="26" value="18" style="rounded=0;whiteSpace=wrap;html=1;direction=south;" parent="1" vertex="1">
                    <mxGeometry x="160" y="410" width="40" height="40" as="geometry"/>
                </mxCell>
                <mxCell id="27" value="19" style="rounded=0;whiteSpace=wrap;html=1;direction=south;" parent="1" vertex="1">
                    <mxGeometry x="200" y="410" width="40" height="40" as="geometry"/>
                </mxCell>
                <mxCell id="28" value="20" style="rounded=0;whiteSpace=wrap;html=1;direction=south;" parent="1" vertex="1">
                    <mxGeometry x="240" y="410" width="40" height="40" as="geometry"/>
                </mxCell>
                <mxCell id="29" value="21" style="rounded=0;whiteSpace=wrap;html=1;direction=south;" parent="1" vertex="1">
                    <mxGeometry x="120" y="330" width="40" height="40" as="geometry"/>
                </mxCell>
                <mxCell id="30" value="22" style="rounded=0;whiteSpace=wrap;html=1;direction=south;" parent="1" vertex="1">
                    <mxGeometry x="160" y="330" width="40" height="40" as="geometry"/>
                </mxCell>
                <mxCell id="31" value="23" style="rounded=0;whiteSpace=wrap;html=1;direction=south;" parent="1" vertex="1">
                    <mxGeometry x="200" y="330" width="40" height="40" as="geometry"/>
                </mxCell>
                <mxCell id="32" value="24" style="rounded=0;whiteSpace=wrap;html=1;direction=south;" parent="1" vertex="1">
                    <mxGeometry x="240" y="330" width="40" height="40" as="geometry"/>
                </mxCell>
                <mxCell id="33" value="テーブル" style="rounded=0;whiteSpace=wrap;html=1;horizontal=1;direction=south;" parent="1" vertex="1">
                    <mxGeometry x="120" y="370" width="160" height="40" as="geometry"/>
                </mxCell>
                <mxCell id="34" value="テーブル" style="rounded=0;whiteSpace=wrap;html=1;horizontal=1;direction=south;" parent="1" vertex="1">
                    <mxGeometry x="120" y="210" width="320" height="40" as="geometry"/>
                </mxCell>
                <mxCell id="35" value="25" style="rounded=0;whiteSpace=wrap;html=1;direction=south;" parent="1" vertex="1">
                    <mxGeometry x="120" y="250" width="40" height="40" as="geometry"/>
                </mxCell>
                <mxCell id="36" value="26" style="rounded=0;whiteSpace=wrap;html=1;direction=south;" parent="1" vertex="1">
                    <mxGeometry x="160" y="250" width="40" height="40" as="geometry"/>
                </mxCell>
                <mxCell id="37" value="27" style="rounded=0;whiteSpace=wrap;html=1;direction=south;" parent="1" vertex="1">
                    <mxGeometry x="200" y="250" width="40" height="40" as="geometry"/>
                </mxCell>
                <mxCell id="38" value="28" style="rounded=0;whiteSpace=wrap;html=1;direction=south;" parent="1" vertex="1">
                    <mxGeometry x="240" y="250" width="40" height="40" as="geometry"/>
                </mxCell>
                <mxCell id="39" value="29" style="rounded=0;whiteSpace=wrap;html=1;direction=south;" parent="1" vertex="1">
                    <mxGeometry x="280" y="250" width="40" height="40" as="geometry"/>
                </mxCell>
                <mxCell id="40" value="30" style="rounded=0;whiteSpace=wrap;html=1;direction=south;" parent="1" vertex="1">
                    <mxGeometry x="320" y="250" width="40" height="40" as="geometry"/>
                </mxCell>
                <mxCell id="41" value="31" style="rounded=0;whiteSpace=wrap;html=1;direction=south;" parent="1" vertex="1">
                    <mxGeometry x="360" y="250" width="40" height="40" as="geometry"/>
                </mxCell>
                <mxCell id="42" value="32" style="rounded=0;whiteSpace=wrap;html=1;direction=south;" parent="1" vertex="1">
                    <mxGeometry x="400" y="250" width="40" height="40" as="geometry"/>
                </mxCell>
                <mxCell id="43" value="33" style="rounded=0;whiteSpace=wrap;html=1;direction=south;" parent="1" vertex="1">
                    <mxGeometry x="120" y="170" width="40" height="40" as="geometry"/>
                </mxCell>
                <mxCell id="44" value="34" style="rounded=0;whiteSpace=wrap;html=1;direction=south;" parent="1" vertex="1">
                    <mxGeometry x="160" y="170" width="40" height="40" as="geometry"/>
                </mxCell>
                <mxCell id="45" value="35" style="rounded=0;whiteSpace=wrap;html=1;direction=south;" parent="1" vertex="1">
                    <mxGeometry x="200" y="170" width="40" height="40" as="geometry"/>
                </mxCell>
                <mxCell id="46" value="36" style="rounded=0;whiteSpace=wrap;html=1;direction=south;" parent="1" vertex="1">
                    <mxGeometry x="240" y="170" width="40" height="40" as="geometry"/>
                </mxCell>
                <mxCell id="47" value="37" style="rounded=0;whiteSpace=wrap;html=1;direction=south;" parent="1" vertex="1">
                    <mxGeometry x="280" y="170" width="40" height="40" as="geometry"/>
                </mxCell>
                <mxCell id="48" value="38" style="rounded=0;whiteSpace=wrap;html=1;direction=south;" parent="1" vertex="1">
                    <mxGeometry x="320" y="170" width="40" height="40" as="geometry"/>
                </mxCell>
                <mxCell id="49" value="39" style="rounded=0;whiteSpace=wrap;html=1;direction=south;" parent="1" vertex="1">
                    <mxGeometry x="360" y="170" width="40" height="40" as="geometry"/>
                </mxCell>
                <mxCell id="50" value="40" style="rounded=0;whiteSpace=wrap;html=1;direction=south;" parent="1" vertex="1">
                    <mxGeometry x="400" y="170" width="40" height="40" as="geometry"/>
                </mxCell>
                <mxCell id="51" value="柱" style="whiteSpace=wrap;html=1;aspect=fixed;direction=south;" parent="1" vertex="1">
                    <mxGeometry x="300" y="350" width="80" height="80" as="geometry"/>
                </mxCell>
                <mxCell id="52" value="テーブル" style="rounded=0;whiteSpace=wrap;html=1;horizontal=1;verticalAlign=middle;labelPosition=center;verticalLabelPosition=middle;align=center;direction=south;" parent="1" vertex="1">
                    <mxGeometry x="390" y="370" width="90" height="40" as="geometry"/>
                </mxCell>
                <mxCell id="58" value="出入口" style="rounded=0;whiteSpace=wrap;html=1;" vertex="1" parent="1">
                    <mxGeometry x="50" y="90" width="60" height="30" as="geometry"/>
                </mxCell>
                <mxCell id="59" value="出入口" style="rounded=0;whiteSpace=wrap;html=1;" vertex="1" parent="1">
                    <mxGeometry x="450" y="90" width="60" height="30" as="geometry"/>
                </mxCell>
            </root>
        </mxGraphModel>
    </diagram>
</mxfile>